<svg width="18" height="18" fill="none" xmlns="http://www.w3.org/2000/svg"><path d="M.26 16.873a.75.75 0 001.48.254l-1.48-.254zm16 .254a.75.75 0 001.48-.254l-1.48.254zM9 13.445l-.53.53.53.53.53-.53-.53-.53zm-3.208-2.54l-.17-.731.17.73zm5.482.266l.53.53-.53-.53zm.934-.267l-.17.73.17-.73zm4.127 2.219l-.739.127.74-.127zm-13.154-1.61l.17.73-.17-.73zM1.74 17.127l.665-3.877-1.479-.254-.664 3.877 1.478.254zm13.857-3.877l.665 3.877 1.478-.254-.664-3.877-1.479.254zm-6.066.725l2.274-2.274-1.06-1.06-2.274 2.273 1.06 1.06zm2.508-2.34l2.61.609.341-1.461-2.61-.61-.341 1.461zm-8.686.609l2.61-.61-.34-1.46-2.611.609.34 1.46zm2.844-.543l2.274 2.274 1.06-1.06-2.273-2.274-1.061 1.06zm-.234-.067a.25.25 0 01.234.067l1.06-1.06a1.75 1.75 0 00-1.634-.467l.34 1.46zm5.842.067a.25.25 0 01.233-.067l.341-1.46a1.75 1.75 0 00-1.635.466l1.061 1.061zm5.27 1.295a2.75 2.75 0 00-2.085-2.213l-.34 1.46c.489.115.862.511.947 1.007l1.479-.254zm-14.67.254a1.25 1.25 0 01.948-1.006l-.341-1.461a2.75 2.75 0 00-2.086 2.213l1.479.254z" fill="#309498"/><path d="M12.555 5.04c0 2.232-1.591 4.849-3.555 4.849-1.964 0-3.556-2.617-3.556-4.849C5.444 2.81 7.036 1 9 1s3.555 1.809 3.555 4.04z" stroke="#309498" stroke-width="1.5"/></svg>