<svg xmlns="http://www.w3.org/2000/svg" width="32" height="32"><g fill="none" fill-rule="evenodd"><path stroke="#309498" stroke-width="1.5" d="M4 .75A3.25 3.25 0 00.75 4v24A3.25 3.25 0 004 31.25h24A3.25 3.25 0 0031.25 28V4A3.25 3.25 0 0028 .75H4z"/><path fill="#309498" d="M8.006 24l1.494-.003-.004-.217c-.029-1.237.265-3.055 1.003-3.226 1.347-.311 2.965-.826 3.228-.89l2.336 4.209.646-1.214c.42-.788 1.468-2.623 1.796-3.095l3.037.906c.01.005.882.475.956 3.342l.007.188H24l-.009-.228c-.096-3.731-1.485-4.533-1.954-4.706l-3.124-.935c-.605-.18-1.254.048-1.522.434-.206.23-.838 1.315-1.342 2.206l-1.066-1.919-.058-.089a1.499 1.499 0 00-1.193-.617c-.25 0-.454.065-.51.094-.176.056-1.759.562-3.059.862-2.093.482-2.183 3.728-2.16 4.71l.003.188zm8.165-16l-.186.003a2.56 2.56 0 00-.113-.002c-.429 0-1.9.085-2.862 1.175-.677.766-.954 1.85-.825 3.222.23 2.442 1.038 3.864 1.674 4.627.83.993 1.74 1.347 2.314 1.347 1.317 0 3.67-2.151 3.671-6.435.006-.147.04-1.772-1.006-2.899C18.198 8.35 17.301 8 16.171 8zm0 1.49c.707 0 1.221.184 1.571.561.531.572.62 1.516.61 1.831l-.002.027v.027c0 3.483-1.733 4.882-2.175 4.945-.13-.004-.627-.161-1.168-.81-.5-.601-1.14-1.75-1.334-3.812-.09-.947.064-1.653.458-2.098.562-.638 1.548-.67 1.741-.67l.06.002.051.001.05-.001.138-.003z"/></g></svg>