<svg width="112" height="112" fill="none" xmlns="http://www.w3.org/2000/svg"><path d="M83.024 32.535c-4.293-.065-6.634-3.185-6.634-3.185-1.951-2.405-1.951-5.2-1.821-6.5.065-.195.065-.455.065-.65.065-.65.13-1.3.13-1.95C74.829 11.215 67.544 4 58.634 4s-16.195 7.215-16.195 16.185c0 1.17.13 2.34.39 3.445.26 1.885.585 8.19-3.902 14.625-3.317 4.81-8.26 6.955-10.602 7.735C14.407 49.24 4 61.655 4 76.605 4 93.96 18.049 108 35.415 108c13.138 0 24.39-8.06 29.073-19.5v-.065c.13-.26.195-.52.325-.845.52-1.105 1.69-3.055 4.097-4.29a9.113 9.113 0 015.724-.91c2.472.78 5.073 1.235 7.805 1.235C96.553 83.625 108 72.185 108 58.08c.065-13.975-11.122-25.285-24.976-25.545z" fill="#ECECED"/><path d="M83.5 77c10.217 0 18.5-8.283 18.5-18.5S93.717 40 83.5 40 65 48.283 65 58.5 73.283 77 83.5 77z" fill="#9BD024"/><path stroke="#0F1420" stroke-width="1.5" stroke-miterlimit="10" stroke-linecap="round" d="M47.6 28H84v14H47.6zm0 21H84v14H47.6zm0 21H84v14H47.6zM28 28h14v14H28zm0 21h14v14H28zm0 21h14v14H28z"/><path fill="#0F1420" d="M31 52h8v8h-8z"/></svg>