<svg width="112" height="112" fill="none" xmlns="http://www.w3.org/2000/svg"><path d="M79.465 28.976c.065 4.293 3.185 6.634 3.185 6.634 2.405 1.951 5.2 1.951 6.5 1.821.195-.065.455-.065.65-.065.65-.065 1.3-.13 1.95-.13 9.035-.065 16.25 7.22 16.25 16.13s-7.215 16.195-16.185 16.195c-1.17 0-2.34-.13-3.445-.39-1.885-.26-8.19-.586-14.625 3.902-4.81 3.317-6.955 8.26-7.735 10.602C62.76 97.594 50.345 108 35.395 108 18.04 108 4 93.951 4 76.585c0-13.138 8.06-24.39 19.5-29.073h.065c.26-.13.52-.195.845-.325 1.105-.52 3.055-1.69 4.29-4.097a9.113 9.113 0 00.91-5.724c-.78-2.471-1.235-5.073-1.235-7.805 0-14.114 11.44-25.56 25.545-25.56 13.975-.066 25.285 11.121 25.545 24.975z" fill="#ECECED"/><path d="M35 28.5C35 18.283 43.283 10 53.5 10S72 18.283 72 28.5 63.717 47 53.5 47 35 38.717 35 28.5z" fill="#9BD024"/><path d="M56.75 39.688a.75.75 0 00-1.5 0h1.5zM56 56h-.75v.31l.22.22L56 56zm10.345 11.405a.75.75 0 101.06-1.06l-1.06 1.06zM84.25 56c0 15.602-12.648 28.25-28.25 28.25v1.5c16.43 0 29.75-13.32 29.75-29.75h-1.5zM56 84.25c-15.602 0-28.25-12.648-28.25-28.25h-1.5c0 16.43 13.32 29.75 29.75 29.75v-1.5zM27.75 56c0-15.602 12.648-28.25 28.25-28.25v-1.5c-16.43 0-29.75 13.32-29.75 29.75h1.5zM56 27.75c15.602 0 28.25 12.648 28.25 28.25h1.5c0-16.43-13.32-29.75-29.75-29.75v1.5zm-.75 11.938V56h1.5V39.687h-1.5zm.22 16.842l10.875 10.875 1.06-1.06L56.53 55.47l-1.06 1.06z" fill="#0F1420"/></svg>