<svg width="112" height="112" fill="none" xmlns="http://www.w3.org/2000/svg"><path d="M70.17 98.965A20.649 20.649 0 0087.265 108C98.705 108 108 98.705 108 87.265c0-8.775-5.46-16.25-13.13-19.305-6.5-2.34-8.255-8.515-8.255-8.515-2.21-6.37 1.105-11.375 2.08-12.675.065-.065.13-.195.26-.325 3.51-4.485 5.655-10.075 5.655-16.25C94.545 15.765 82.845 4 68.35 4 53.855 4 42.09 15.765 42.09 30.26c0 .52 0 .975.065 1.43-.195 6.5-4.42 10.725-4.42 10.725C33.38 47.16 27.66 47.29 27.66 47.29 14.4 48.395 4 59.445 4 72.965c0 14.235 11.505 25.74 25.74 25.74 5.46 0 10.465-1.69 14.625-4.55 6.89-4.55 14.69-2.405 14.69-2.405 6.045 1.17 10.01 5.785 11.115 7.215z" fill="#ECECED"/><path d="M68.55 47.1c9.693 0 17.55-7.857 17.55-17.55C86.1 19.857 78.243 12 68.55 12 58.857 12 51 19.857 51 29.55c0 9.693 7.857 17.55 17.55 17.55z" fill="#9BD024"/><path d="M39.79 39.79h32.42M39.79 50.104h32.42M39.79 60.421h32.42M62.158 71.474l5.158 5.158 8.105-10.316M29.001 84H83a1 1 0 001-1V29a1 1 0 00-1-1H29a1 1 0 00-1 1v54a1 1 0 001 1z" stroke="#0F1420" stroke-width="1.5" stroke-miterlimit="10" stroke-linecap="round"/></svg>