<svg width="112" height="112" fill="none" xmlns="http://www.w3.org/2000/svg"><path d="M89.215 46.563C99.81 45.262 108 36.28 108 25.347 108 13.567 98.445 4 86.68 4c-10.53 0-19.305 7.68-21.06 17.702-.065.52-.13.976-.195 1.497-.455 1.952-1.885 5.402-6.5 7.029 0 0-6.11 2.343-10.92-3.32-4.485-5.857-11.505-9.631-19.435-9.631C14.985 17.277 4 28.21 4 41.747c0 12.496 9.295 22.779 21.32 24.34 2.21.326 11.96 2.213 18.07 9.763 6.825 8.46 6.565 12.69 7.67 17.767.39 8.005 6.955 14.383 15.08 14.383 8.32 0 15.08-6.768 15.08-15.099 0-4.165-1.69-8.005-4.42-10.738-1.56-1.757-7.345-9.502-3.965-20.891 0 .065 3.705-12.366 16.38-14.709z" fill="#ECECED"/><path d="M28.505 57.757c8.831 0 15.99-7.168 15.99-16.01 0-8.842-7.159-16.01-15.99-16.01-8.83 0-15.99 7.168-15.99 16.01 0 8.842 7.16 16.01 15.99 16.01z" fill="#9BD024"/><path d="M41.65 66.026l-10.372-7.754a3 3 0 01-.127-4.705l22.79-19.042a3 3 0 013.727-.095L80.9 51.9a3 3 0 01.065 4.745l-11.789 9.38m-27.527 0V57.18c0-2.358 3.529-9.435 14.116-9.435 8.47 0 12.47 6.29 13.411 9.435v8.847m-27.527 0C41.414 70.35 43.908 79 55.766 79s13.882-8.65 13.411-12.974m-27.527 0c.94-2.752 5.082-8.257 14.116-8.257 9.035 0 12.706 5.505 13.411 8.257m-38.115-4.718l2.823 10.025c.471 1.376.565 4.129-2.823 4.129s-3.294-3.146-2.823-4.718l2.823-9.436z" stroke="#0F1420" stroke-width="1.5" stroke-miterlimit="10" stroke-linecap="round" stroke-linejoin="round"/></svg>