<svg width="112" height="112" fill="none" xmlns="http://www.w3.org/2000/svg"><path d="M88.24 48.924c-.845-.52-2.275-1.623-2.925-3.506-.715-2.077-.39-4.025-.13-4.934 1.43-3.18 2.21-6.751 2.21-10.517C87.395 15.622 75.76 4 61.395 4c-12.935.065-23.66 9.478-25.675 21.813-1.625 5.193-4.875 9.348-4.875 9.348-4.68 5.713-9.815 7.855-11.7 8.504C10.435 46.132 4 54.182 4 63.725 4 75.216 13.295 84.5 24.8 84.5c3.185 0 6.175-.714 8.84-1.947 4.355-2.532 9.425-.325 9.425-.325 2.86 1.169 4.615 3.506 5.46 5.064C52.62 99.366 63.995 108 77.45 108 94.35 108 108 94.367 108 77.488c0-13.049-8.19-24.15-19.76-28.564z" fill="#ECECED"/><path d="M77.45 96.77c10.662 0 19.305-8.633 19.305-19.282 0-10.648-8.643-19.28-19.305-19.28-10.662 0-19.305 8.632-19.305 19.28 0 10.649 8.643 19.281 19.305 19.281z" fill="#9BD024"/><path d="M56 27.75a.75.75 0 000-1.5v1.5zm-2.403.783l-.68-.318.68.318zM46.16 44.436l.113.742.396-.061.17-.363-.68-.318zm-16.903 2.591l-.113-.74.113.74zm-1.5 4.494l-.537.522.538-.522zm12.32 12.667l.74.12.06-.372-.262-.27-.538.522zm-2.88 17.715l.74.12-.74-.12zm3.904 2.76l.362.656.002-.001-.364-.656zM56 76.395l.364-.656-.364-.202-.364.202.364.656zm14.9 8.266l-.364.656h.001l.363-.656zm3.904-2.76l-.74.121.74-.12zm-2.88-17.714l-.537-.523-.263.27.06.373.74-.12zM84.242 51.52l.538.523-.538-.523zm-1.499-4.494l.114-.74-.114.74zm-16.9-2.59l-.68.317.17.363.395.06.114-.74zm-7.44-15.904l-.68.317.68-.317zM56 26.25a.75.75 0 000 1.5v-1.5zm0 0a3.37 3.37 0 00-3.082 1.965l1.358.636A1.87 1.87 0 0156 27.75v-1.5zm-3.082 1.965l-7.439 15.903 1.359.636 7.438-15.904-1.358-.635zm-6.873 15.48l-16.902 2.591.227 1.483 16.902-2.591-.227-1.483zm-16.903 2.591c-2.742.42-3.853 3.77-1.923 5.757L28.295 51c-1.086-1.12-.454-2.996 1.075-3.23l-.228-1.483zm-1.923 5.758L39.54 64.71l1.075-1.046-12.32-12.667-1.075 1.046zm12.117 12.024l-2.88 17.715 1.48.24 2.88-17.715-1.48-.24zm-2.88 17.714c-.36 2.209 1.396 3.968 3.36 3.968v-1.5c-1.11 0-2.08-.999-1.88-2.227l-1.48-.24zm3.36 3.968c.552 0 1.115-.138 1.646-.431l-.725-1.314c-.31.171-.623.245-.92.245v1.5zm1.648-.432l14.9-8.266-.728-1.312-14.9 8.266.728 1.312zm14.172-8.266l14.9 8.266.727-1.312-14.9-8.266-.727 1.312zm14.901 8.267a3.394 3.394 0 001.647.431v-1.5c-.3 0-.612-.074-.922-.245l-.725 1.314zm1.647.431c1.963 0 3.72-1.759 3.36-3.968l-1.48.241c.2 1.228-.771 2.227-1.88 2.227v1.5zm3.36-3.968l-2.879-17.714-1.48.24 2.88 17.715 1.48-.24zm-3.081-17.071L84.78 52.044l-1.075-1.046-12.318 12.667 1.076 1.046zM84.78 52.044c1.932-1.988.819-5.337-1.923-5.758l-.228 1.483c1.53.235 2.162 2.111 1.076 3.23l1.075 1.045zm-1.923-5.758l-16.901-2.591-.228 1.483 16.901 2.59.228-1.482zm-16.335-2.168l-7.44-15.903-1.359.636 7.44 15.903 1.359-.636zm-7.44-15.903A3.368 3.368 0 0056 26.25v1.5c.697 0 1.38.364 1.723 1.1l1.359-.635z" fill="#0F1420"/></svg>