<svg width="112" height="112" fill="none" xmlns="http://www.w3.org/2000/svg"><path fill-rule="evenodd" clip-rule="evenodd" d="M97.978 65.045l.02-.014c-4.435-3.304-5.349-8.038-5.349-8.038-1.597-6.9 1.254-11.149 3.06-13.047.445-.365.871-.75 1.286-1.148l.031-.022-.004-.003c4.266-4.1 6.926-9.856 6.926-16.237C103.948 14.09 93.843 4 81.378 4c-10.206 0-18.826 6.766-21.616 16.05l-.053-.032c-2.233 6.242-7.712 8.86-7.712 8.86-6.838 3.454-12.584 1.209-12.584 1.209l.006.07a27.182 27.182 0 00-8.257-1.28C16.162 28.877 4 41.021 4 56c0 14.98 12.161 27.122 27.162 27.122a27.08 27.08 0 0012.636-3.114c6.003-2.602 10.75.238 10.75.238 4.463 2.338 5.928 6.024 6.402 7.91.064.393.138.784.22 1.171a.252.252 0 01.003.029l.004-.002C63.475 100.011 72.962 108 84.321 108 97.4 108 108 97.414 108 84.354c0-7.977-3.961-15.027-10.022-19.31z" fill="#ECECED"/><path d="M31.3 71.6c8.616 0 15.6-6.984 15.6-15.6s-6.984-15.6-15.6-15.6c-8.615 0-15.6 6.984-15.6 15.6 0 8.615 6.985 15.6 15.6 15.6z" fill="#9BD024"/><path d="M34.632 36.615v7.898m0 0H29a1 1 0 00-1 1v29.59a1 1 0 001 1h5.632m0-31.59h5.631a1 1 0 011 1v29.59a1 1 0 01-1 1h-5.631m0 0V84m22.105-56v7.897m0 0h-5.632a1 1 0 00-1 1v22.41a1 1 0 001 1h5.632m0-24.41h5.632a1 1 0 011 1v22.41a1 1 0 01-1 1h-5.632m0 0V70.36m20.631-29.437v7.897m0 0h-5.631a1 1 0 00-1 1v16.667a1 1 0 001 1h5.631m0-18.667H83a1 1 0 011 1v16.667a1 1 0 01-1 1h-5.632m0 0v7.18" stroke="#0F1420" stroke-width="1.5" stroke-miterlimit="10" stroke-linecap="round"/></svg>