<svg width="40" height="40" fill="none" xmlns="http://www.w3.org/2000/svg"><rect width="40" height="40" rx="20" fill="#9BD024"/><path d="M20.024 26.283a94.463 94.463 0 01-5.777-.122c-.625-.037-1.25-.092-1.818-.405-.38-.21-.673-.5-.857-.913-.31-.685-.408-1.407-.466-2.143a36.907 36.907 0 01-.065-4.56c.032-.806.057-1.62.245-2.411a4.24 4.24 0 01.319-.899c.332-.674.91-1.009 1.608-1.149.586-.118 1.186-.114 1.783-.14a114.76 114.76 0 016.07-.107c1.558.019 3.12.06 4.678.14.48.026.965.033 1.424.207.622.235 1.085.633 1.334 1.277.242.619.336 1.26.387 1.919.14 1.79.145 3.58.029 5.369-.04.604-.08 1.208-.235 1.8-.35 1.363-1.186 1.897-2.412 1.982a73.705 73.705 0 01-3.933.155c-.77.007-1.544 0-2.314 0zm-1.898-3.768l5.235-2.92c-1.76-.983-3.488-1.944-5.235-2.92v5.84z" fill="#0F1420"/></svg>